<?xml version="1.0" encoding="utf-8"?>
<svg version="1.1" baseProfile="full"  width="328" height="328" viewBox="0 0 328 328"
		 xmlns="http://www.w3.org/2000/svg" xmlns:xlink="http://www.w3.org/1999/xlink" xmlns:ev="http://www.w3.org/2001/xml-events">
<desc></desc>
<rect width="328" height="328" fill="#ffffff" cx="0" cy="0" />
<defs>
<rect id="p" width="8" height="8" />
</defs>
<g fill="#000000">
<use x="32" y="32" xlink:href="#p" />
<use x="32" y="40" xlink:href="#p" />
<use x="32" y="48" xlink:href="#p" />
<use x="32" y="56" xlink:href="#p" />
<use x="32" y="64" xlink:href="#p" />
<use x="32" y="72" xlink:href="#p" />
<use x="32" y="80" xlink:href="#p" />
<use x="32" y="96" xlink:href="#p" />
<use x="32" y="112" xlink:href="#p" />
<use x="32" y="136" xlink:href="#p" />
<use x="32" y="144" xlink:href="#p" />
<use x="32" y="152" xlink:href="#p" />
<use x="32" y="160" xlink:href="#p" />
<use x="32" y="168" xlink:href="#p" />
<use x="32" y="240" xlink:href="#p" />
<use x="32" y="248" xlink:href="#p" />
<use x="32" y="256" xlink:href="#p" />
<use x="32" y="264" xlink:href="#p" />
<use x="32" y="272" xlink:href="#p" />
<use x="32" y="280" xlink:href="#p" />
<use x="32" y="288" xlink:href="#p" />
<use x="40" y="32" xlink:href="#p" />
<use x="40" y="80" xlink:href="#p" />
<use x="40" y="96" xlink:href="#p" />
<use x="40" y="104" xlink:href="#p" />
<use x="40" y="112" xlink:href="#p" />
<use x="40" y="128" xlink:href="#p" />
<use x="40" y="144" xlink:href="#p" />
<use x="40" y="160" xlink:href="#p" />
<use x="40" y="168" xlink:href="#p" />
<use x="40" y="176" xlink:href="#p" />
<use x="40" y="184" xlink:href="#p" />
<use x="40" y="192" xlink:href="#p" />
<use x="40" y="200" xlink:href="#p" />
<use x="40" y="208" xlink:href="#p" />
<use x="40" y="216" xlink:href="#p" />
<use x="40" y="240" xlink:href="#p" />
<use x="40" y="288" xlink:href="#p" />
<use x="48" y="32" xlink:href="#p" />
<use x="48" y="48" xlink:href="#p" />
<use x="48" y="56" xlink:href="#p" />
<use x="48" y="64" xlink:href="#p" />
<use x="48" y="80" xlink:href="#p" />
<use x="48" y="104" xlink:href="#p" />
<use x="48" y="120" xlink:href="#p" />
<use x="48" y="128" xlink:href="#p" />
<use x="48" y="136" xlink:href="#p" />
<use x="48" y="144" xlink:href="#p" />
<use x="48" y="152" xlink:href="#p" />
<use x="48" y="176" xlink:href="#p" />
<use x="48" y="184" xlink:href="#p" />
<use x="48" y="192" xlink:href="#p" />
<use x="48" y="216" xlink:href="#p" />
<use x="48" y="240" xlink:href="#p" />
<use x="48" y="256" xlink:href="#p" />
<use x="48" y="264" xlink:href="#p" />
<use x="48" y="272" xlink:href="#p" />
<use x="48" y="288" xlink:href="#p" />
<use x="56" y="32" xlink:href="#p" />
<use x="56" y="48" xlink:href="#p" />
<use x="56" y="56" xlink:href="#p" />
<use x="56" y="64" xlink:href="#p" />
<use x="56" y="80" xlink:href="#p" />
<use x="56" y="96" xlink:href="#p" />
<use x="56" y="128" xlink:href="#p" />
<use x="56" y="144" xlink:href="#p" />
<use x="56" y="160" xlink:href="#p" />
<use x="56" y="192" xlink:href="#p" />
<use x="56" y="200" xlink:href="#p" />
<use x="56" y="216" xlink:href="#p" />
<use x="56" y="240" xlink:href="#p" />
<use x="56" y="256" xlink:href="#p" />
<use x="56" y="264" xlink:href="#p" />
<use x="56" y="272" xlink:href="#p" />
<use x="56" y="288" xlink:href="#p" />
<use x="64" y="32" xlink:href="#p" />
<use x="64" y="48" xlink:href="#p" />
<use x="64" y="56" xlink:href="#p" />
<use x="64" y="64" xlink:href="#p" />
<use x="64" y="80" xlink:href="#p" />
<use x="64" y="96" xlink:href="#p" />
<use x="64" y="120" xlink:href="#p" />
<use x="64" y="128" xlink:href="#p" />
<use x="64" y="136" xlink:href="#p" />
<use x="64" y="144" xlink:href="#p" />
<use x="64" y="160" xlink:href="#p" />
<use x="64" y="184" xlink:href="#p" />
<use x="64" y="224" xlink:href="#p" />
<use x="64" y="240" xlink:href="#p" />
<use x="64" y="256" xlink:href="#p" />
<use x="64" y="264" xlink:href="#p" />
<use x="64" y="272" xlink:href="#p" />
<use x="64" y="288" xlink:href="#p" />
<use x="72" y="32" xlink:href="#p" />
<use x="72" y="80" xlink:href="#p" />
<use x="72" y="104" xlink:href="#p" />
<use x="72" y="128" xlink:href="#p" />
<use x="72" y="136" xlink:href="#p" />
<use x="72" y="144" xlink:href="#p" />
<use x="72" y="168" xlink:href="#p" />
<use x="72" y="176" xlink:href="#p" />
<use x="72" y="184" xlink:href="#p" />
<use x="72" y="192" xlink:href="#p" />
<use x="72" y="240" xlink:href="#p" />
<use x="72" y="288" xlink:href="#p" />
<use x="80" y="32" xlink:href="#p" />
<use x="80" y="40" xlink:href="#p" />
<use x="80" y="48" xlink:href="#p" />
<use x="80" y="56" xlink:href="#p" />
<use x="80" y="64" xlink:href="#p" />
<use x="80" y="72" xlink:href="#p" />
<use x="80" y="80" xlink:href="#p" />
<use x="80" y="96" xlink:href="#p" />
<use x="80" y="112" xlink:href="#p" />
<use x="80" y="128" xlink:href="#p" />
<use x="80" y="144" xlink:href="#p" />
<use x="80" y="160" xlink:href="#p" />
<use x="80" y="176" xlink:href="#p" />
<use x="80" y="192" xlink:href="#p" />
<use x="80" y="208" xlink:href="#p" />
<use x="80" y="224" xlink:href="#p" />
<use x="80" y="240" xlink:href="#p" />
<use x="80" y="248" xlink:href="#p" />
<use x="80" y="256" xlink:href="#p" />
<use x="80" y="264" xlink:href="#p" />
<use x="80" y="272" xlink:href="#p" />
<use x="80" y="280" xlink:href="#p" />
<use x="80" y="288" xlink:href="#p" />
<use x="88" y="112" xlink:href="#p" />
<use x="88" y="136" xlink:href="#p" />
<use x="88" y="144" xlink:href="#p" />
<use x="88" y="152" xlink:href="#p" />
<use x="88" y="160" xlink:href="#p" />
<use x="88" y="184" xlink:href="#p" />
<use x="88" y="192" xlink:href="#p" />
<use x="88" y="200" xlink:href="#p" />
<use x="88" y="216" xlink:href="#p" />
<use x="96" y="32" xlink:href="#p" />
<use x="96" y="80" xlink:href="#p" />
<use x="96" y="88" xlink:href="#p" />
<use x="96" y="104" xlink:href="#p" />
<use x="96" y="112" xlink:href="#p" />
<use x="96" y="128" xlink:href="#p" />
<use x="96" y="144" xlink:href="#p" />
<use x="96" y="152" xlink:href="#p" />
<use x="96" y="160" xlink:href="#p" />
<use x="96" y="168" xlink:href="#p" />
<use x="96" y="192" xlink:href="#p" />
<use x="96" y="200" xlink:href="#p" />
<use x="96" y="232" xlink:href="#p" />
<use x="96" y="256" xlink:href="#p" />
<use x="96" y="264" xlink:href="#p" />
<use x="96" y="280" xlink:href="#p" />
<use x="96" y="288" xlink:href="#p" />
<use x="104" y="32" xlink:href="#p" />
<use x="104" y="48" xlink:href="#p" />
<use x="104" y="72" xlink:href="#p" />
<use x="104" y="88" xlink:href="#p" />
<use x="104" y="96" xlink:href="#p" />
<use x="104" y="112" xlink:href="#p" />
<use x="104" y="128" xlink:href="#p" />
<use x="104" y="136" xlink:href="#p" />
<use x="104" y="144" xlink:href="#p" />
<use x="104" y="152" xlink:href="#p" />
<use x="104" y="168" xlink:href="#p" />
<use x="104" y="184" xlink:href="#p" />
<use x="104" y="216" xlink:href="#p" />
<use x="104" y="224" xlink:href="#p" />
<use x="104" y="232" xlink:href="#p" />
<use x="104" y="248" xlink:href="#p" />
<use x="104" y="256" xlink:href="#p" />
<use x="104" y="272" xlink:href="#p" />
<use x="104" y="280" xlink:href="#p" />
<use x="112" y="32" xlink:href="#p" />
<use x="112" y="56" xlink:href="#p" />
<use x="112" y="64" xlink:href="#p" />
<use x="112" y="80" xlink:href="#p" />
<use x="112" y="104" xlink:href="#p" />
<use x="112" y="128" xlink:href="#p" />
<use x="112" y="136" xlink:href="#p" />
<use x="112" y="144" xlink:href="#p" />
<use x="112" y="192" xlink:href="#p" />
<use x="112" y="200" xlink:href="#p" />
<use x="112" y="216" xlink:href="#p" />
<use x="112" y="256" xlink:href="#p" />
<use x="112" y="264" xlink:href="#p" />
<use x="112" y="272" xlink:href="#p" />
<use x="112" y="288" xlink:href="#p" />
<use x="120" y="32" xlink:href="#p" />
<use x="120" y="40" xlink:href="#p" />
<use x="120" y="48" xlink:href="#p" />
<use x="120" y="56" xlink:href="#p" />
<use x="120" y="64" xlink:href="#p" />
<use x="120" y="72" xlink:href="#p" />
<use x="120" y="152" xlink:href="#p" />
<use x="120" y="176" xlink:href="#p" />
<use x="120" y="192" xlink:href="#p" />
<use x="120" y="200" xlink:href="#p" />
<use x="120" y="208" xlink:href="#p" />
<use x="120" y="216" xlink:href="#p" />
<use x="120" y="224" xlink:href="#p" />
<use x="120" y="232" xlink:href="#p" />
<use x="120" y="272" xlink:href="#p" />
<use x="128" y="40" xlink:href="#p" />
<use x="128" y="64" xlink:href="#p" />
<use x="128" y="80" xlink:href="#p" />
<use x="128" y="88" xlink:href="#p" />
<use x="128" y="96" xlink:href="#p" />
<use x="128" y="112" xlink:href="#p" />
<use x="128" y="128" xlink:href="#p" />
<use x="128" y="136" xlink:href="#p" />
<use x="128" y="160" xlink:href="#p" />
<use x="128" y="168" xlink:href="#p" />
<use x="128" y="184" xlink:href="#p" />
<use x="128" y="200" xlink:href="#p" />
<use x="128" y="208" xlink:href="#p" />
<use x="128" y="216" xlink:href="#p" />
<use x="128" y="232" xlink:href="#p" />
<use x="128" y="248" xlink:href="#p" />
<use x="128" y="264" xlink:href="#p" />
<use x="128" y="272" xlink:href="#p" />
<use x="136" y="32" xlink:href="#p" />
<use x="136" y="40" xlink:href="#p" />
<use x="136" y="48" xlink:href="#p" />
<use x="136" y="56" xlink:href="#p" />
<use x="136" y="64" xlink:href="#p" />
<use x="136" y="72" xlink:href="#p" />
<use x="136" y="88" xlink:href="#p" />
<use x="136" y="136" xlink:href="#p" />
<use x="136" y="144" xlink:href="#p" />
<use x="136" y="160" xlink:href="#p" />
<use x="136" y="168" xlink:href="#p" />
<use x="136" y="176" xlink:href="#p" />
<use x="136" y="184" xlink:href="#p" />
<use x="136" y="240" xlink:href="#p" />
<use x="136" y="256" xlink:href="#p" />
<use x="136" y="272" xlink:href="#p" />
<use x="136" y="280" xlink:href="#p" />
<use x="144" y="40" xlink:href="#p" />
<use x="144" y="56" xlink:href="#p" />
<use x="144" y="64" xlink:href="#p" />
<use x="144" y="72" xlink:href="#p" />
<use x="144" y="80" xlink:href="#p" />
<use x="144" y="112" xlink:href="#p" />
<use x="144" y="120" xlink:href="#p" />
<use x="144" y="128" xlink:href="#p" />
<use x="144" y="144" xlink:href="#p" />
<use x="144" y="152" xlink:href="#p" />
<use x="144" y="160" xlink:href="#p" />
<use x="144" y="168" xlink:href="#p" />
<use x="144" y="176" xlink:href="#p" />
<use x="144" y="208" xlink:href="#p" />
<use x="144" y="216" xlink:href="#p" />
<use x="144" y="224" xlink:href="#p" />
<use x="144" y="256" xlink:href="#p" />
<use x="144" y="264" xlink:href="#p" />
<use x="144" y="272" xlink:href="#p" />
<use x="144" y="280" xlink:href="#p" />
<use x="152" y="48" xlink:href="#p" />
<use x="152" y="88" xlink:href="#p" />
<use x="152" y="104" xlink:href="#p" />
<use x="152" y="112" xlink:href="#p" />
<use x="152" y="128" xlink:href="#p" />
<use x="152" y="136" xlink:href="#p" />
<use x="152" y="144" xlink:href="#p" />
<use x="152" y="152" xlink:href="#p" />
<use x="152" y="160" xlink:href="#p" />
<use x="152" y="168" xlink:href="#p" />
<use x="152" y="176" xlink:href="#p" />
<use x="152" y="192" xlink:href="#p" />
<use x="152" y="200" xlink:href="#p" />
<use x="152" y="208" xlink:href="#p" />
<use x="152" y="224" xlink:href="#p" />
<use x="152" y="232" xlink:href="#p" />
<use x="152" y="240" xlink:href="#p" />
<use x="152" y="248" xlink:href="#p" />
<use x="152" y="264" xlink:href="#p" />
<use x="152" y="272" xlink:href="#p" />
<use x="152" y="280" xlink:href="#p" />
<use x="152" y="288" xlink:href="#p" />
<use x="160" y="56" xlink:href="#p" />
<use x="160" y="64" xlink:href="#p" />
<use x="160" y="80" xlink:href="#p" />
<use x="160" y="88" xlink:href="#p" />
<use x="160" y="96" xlink:href="#p" />
<use x="160" y="104" xlink:href="#p" />
<use x="160" y="136" xlink:href="#p" />
<use x="160" y="152" xlink:href="#p" />
<use x="160" y="184" xlink:href="#p" />
<use x="160" y="224" xlink:href="#p" />
<use x="160" y="232" xlink:href="#p" />
<use x="160" y="272" xlink:href="#p" />
<use x="168" y="32" xlink:href="#p" />
<use x="168" y="40" xlink:href="#p" />
<use x="168" y="56" xlink:href="#p" />
<use x="168" y="64" xlink:href="#p" />
<use x="168" y="96" xlink:href="#p" />
<use x="168" y="104" xlink:href="#p" />
<use x="168" y="120" xlink:href="#p" />
<use x="168" y="144" xlink:href="#p" />
<use x="168" y="168" xlink:href="#p" />
<use x="168" y="176" xlink:href="#p" />
<use x="168" y="192" xlink:href="#p" />
<use x="168" y="216" xlink:href="#p" />
<use x="168" y="232" xlink:href="#p" />
<use x="168" y="256" xlink:href="#p" />
<use x="168" y="264" xlink:href="#p" />
<use x="168" y="272" xlink:href="#p" />
<use x="168" y="288" xlink:href="#p" />
<use x="176" y="40" xlink:href="#p" />
<use x="176" y="64" xlink:href="#p" />
<use x="176" y="72" xlink:href="#p" />
<use x="176" y="80" xlink:href="#p" />
<use x="176" y="104" xlink:href="#p" />
<use x="176" y="152" xlink:href="#p" />
<use x="176" y="168" xlink:href="#p" />
<use x="176" y="208" xlink:href="#p" />
<use x="176" y="216" xlink:href="#p" />
<use x="176" y="224" xlink:href="#p" />
<use x="176" y="232" xlink:href="#p" />
<use x="176" y="272" xlink:href="#p" />
<use x="176" y="280" xlink:href="#p" />
<use x="184" y="40" xlink:href="#p" />
<use x="184" y="48" xlink:href="#p" />
<use x="184" y="56" xlink:href="#p" />
<use x="184" y="64" xlink:href="#p" />
<use x="184" y="88" xlink:href="#p" />
<use x="184" y="96" xlink:href="#p" />
<use x="184" y="144" xlink:href="#p" />
<use x="184" y="152" xlink:href="#p" />
<use x="184" y="168" xlink:href="#p" />
<use x="184" y="176" xlink:href="#p" />
<use x="184" y="200" xlink:href="#p" />
<use x="184" y="240" xlink:href="#p" />
<use x="184" y="264" xlink:href="#p" />
<use x="184" y="272" xlink:href="#p" />
<use x="184" y="280" xlink:href="#p" />
<use x="184" y="288" xlink:href="#p" />
<use x="192" y="56" xlink:href="#p" />
<use x="192" y="80" xlink:href="#p" />
<use x="192" y="120" xlink:href="#p" />
<use x="192" y="128" xlink:href="#p" />
<use x="192" y="136" xlink:href="#p" />
<use x="192" y="144" xlink:href="#p" />
<use x="192" y="160" xlink:href="#p" />
<use x="192" y="168" xlink:href="#p" />
<use x="192" y="176" xlink:href="#p" />
<use x="192" y="224" xlink:href="#p" />
<use x="192" y="248" xlink:href="#p" />
<use x="192" y="264" xlink:href="#p" />
<use x="192" y="272" xlink:href="#p" />
<use x="192" y="280" xlink:href="#p" />
<use x="192" y="288" xlink:href="#p" />
<use x="200" y="32" xlink:href="#p" />
<use x="200" y="40" xlink:href="#p" />
<use x="200" y="48" xlink:href="#p" />
<use x="200" y="56" xlink:href="#p" />
<use x="200" y="64" xlink:href="#p" />
<use x="200" y="104" xlink:href="#p" />
<use x="200" y="168" xlink:href="#p" />
<use x="200" y="176" xlink:href="#p" />
<use x="200" y="200" xlink:href="#p" />
<use x="200" y="208" xlink:href="#p" />
<use x="200" y="224" xlink:href="#p" />
<use x="200" y="232" xlink:href="#p" />
<use x="200" y="240" xlink:href="#p" />
<use x="200" y="272" xlink:href="#p" />
<use x="208" y="64" xlink:href="#p" />
<use x="208" y="80" xlink:href="#p" />
<use x="208" y="104" xlink:href="#p" />
<use x="208" y="112" xlink:href="#p" />
<use x="208" y="136" xlink:href="#p" />
<use x="208" y="144" xlink:href="#p" />
<use x="208" y="152" xlink:href="#p" />
<use x="208" y="160" xlink:href="#p" />
<use x="208" y="176" xlink:href="#p" />
<use x="208" y="184" xlink:href="#p" />
<use x="208" y="192" xlink:href="#p" />
<use x="208" y="200" xlink:href="#p" />
<use x="208" y="208" xlink:href="#p" />
<use x="208" y="256" xlink:href="#p" />
<use x="208" y="264" xlink:href="#p" />
<use x="208" y="272" xlink:href="#p" />
<use x="208" y="280" xlink:href="#p" />
<use x="216" y="32" xlink:href="#p" />
<use x="216" y="56" xlink:href="#p" />
<use x="216" y="72" xlink:href="#p" />
<use x="216" y="88" xlink:href="#p" />
<use x="216" y="104" xlink:href="#p" />
<use x="216" y="112" xlink:href="#p" />
<use x="216" y="120" xlink:href="#p" />
<use x="216" y="128" xlink:href="#p" />
<use x="216" y="136" xlink:href="#p" />
<use x="216" y="152" xlink:href="#p" />
<use x="216" y="160" xlink:href="#p" />
<use x="216" y="176" xlink:href="#p" />
<use x="216" y="208" xlink:href="#p" />
<use x="216" y="240" xlink:href="#p" />
<use x="216" y="256" xlink:href="#p" />
<use x="216" y="288" xlink:href="#p" />
<use x="224" y="56" xlink:href="#p" />
<use x="224" y="64" xlink:href="#p" />
<use x="224" y="72" xlink:href="#p" />
<use x="224" y="80" xlink:href="#p" />
<use x="224" y="88" xlink:href="#p" />
<use x="224" y="128" xlink:href="#p" />
<use x="224" y="152" xlink:href="#p" />
<use x="224" y="224" xlink:href="#p" />
<use x="224" y="232" xlink:href="#p" />
<use x="224" y="240" xlink:href="#p" />
<use x="224" y="248" xlink:href="#p" />
<use x="224" y="256" xlink:href="#p" />
<use x="224" y="264" xlink:href="#p" />
<use x="224" y="288" xlink:href="#p" />
<use x="232" y="112" xlink:href="#p" />
<use x="232" y="120" xlink:href="#p" />
<use x="232" y="136" xlink:href="#p" />
<use x="232" y="184" xlink:href="#p" />
<use x="232" y="216" xlink:href="#p" />
<use x="232" y="224" xlink:href="#p" />
<use x="232" y="256" xlink:href="#p" />
<use x="232" y="264" xlink:href="#p" />
<use x="232" y="272" xlink:href="#p" />
<use x="240" y="32" xlink:href="#p" />
<use x="240" y="40" xlink:href="#p" />
<use x="240" y="48" xlink:href="#p" />
<use x="240" y="56" xlink:href="#p" />
<use x="240" y="64" xlink:href="#p" />
<use x="240" y="72" xlink:href="#p" />
<use x="240" y="80" xlink:href="#p" />
<use x="240" y="96" xlink:href="#p" />
<use x="240" y="120" xlink:href="#p" />
<use x="240" y="128" xlink:href="#p" />
<use x="240" y="144" xlink:href="#p" />
<use x="240" y="160" xlink:href="#p" />
<use x="240" y="168" xlink:href="#p" />
<use x="240" y="208" xlink:href="#p" />
<use x="240" y="216" xlink:href="#p" />
<use x="240" y="224" xlink:href="#p" />
<use x="240" y="240" xlink:href="#p" />
<use x="240" y="256" xlink:href="#p" />
<use x="240" y="288" xlink:href="#p" />
<use x="248" y="32" xlink:href="#p" />
<use x="248" y="80" xlink:href="#p" />
<use x="248" y="104" xlink:href="#p" />
<use x="248" y="112" xlink:href="#p" />
<use x="248" y="136" xlink:href="#p" />
<use x="248" y="160" xlink:href="#p" />
<use x="248" y="168" xlink:href="#p" />
<use x="248" y="184" xlink:href="#p" />
<use x="248" y="192" xlink:href="#p" />
<use x="248" y="200" xlink:href="#p" />
<use x="248" y="224" xlink:href="#p" />
<use x="248" y="256" xlink:href="#p" />
<use x="256" y="32" xlink:href="#p" />
<use x="256" y="48" xlink:href="#p" />
<use x="256" y="56" xlink:href="#p" />
<use x="256" y="64" xlink:href="#p" />
<use x="256" y="80" xlink:href="#p" />
<use x="256" y="104" xlink:href="#p" />
<use x="256" y="112" xlink:href="#p" />
<use x="256" y="144" xlink:href="#p" />
<use x="256" y="152" xlink:href="#p" />
<use x="256" y="160" xlink:href="#p" />
<use x="256" y="168" xlink:href="#p" />
<use x="256" y="176" xlink:href="#p" />
<use x="256" y="184" xlink:href="#p" />
<use x="256" y="200" xlink:href="#p" />
<use x="256" y="216" xlink:href="#p" />
<use x="256" y="224" xlink:href="#p" />
<use x="256" y="232" xlink:href="#p" />
<use x="256" y="240" xlink:href="#p" />
<use x="256" y="248" xlink:href="#p" />
<use x="256" y="256" xlink:href="#p" />
<use x="256" y="272" xlink:href="#p" />
<use x="256" y="280" xlink:href="#p" />
<use x="264" y="32" xlink:href="#p" />
<use x="264" y="48" xlink:href="#p" />
<use x="264" y="56" xlink:href="#p" />
<use x="264" y="64" xlink:href="#p" />
<use x="264" y="80" xlink:href="#p" />
<use x="264" y="112" xlink:href="#p" />
<use x="264" y="120" xlink:href="#p" />
<use x="264" y="128" xlink:href="#p" />
<use x="264" y="136" xlink:href="#p" />
<use x="264" y="144" xlink:href="#p" />
<use x="264" y="160" xlink:href="#p" />
<use x="264" y="184" xlink:href="#p" />
<use x="264" y="192" xlink:href="#p" />
<use x="264" y="200" xlink:href="#p" />
<use x="264" y="232" xlink:href="#p" />
<use x="264" y="240" xlink:href="#p" />
<use x="264" y="248" xlink:href="#p" />
<use x="272" y="32" xlink:href="#p" />
<use x="272" y="48" xlink:href="#p" />
<use x="272" y="56" xlink:href="#p" />
<use x="272" y="64" xlink:href="#p" />
<use x="272" y="80" xlink:href="#p" />
<use x="272" y="120" xlink:href="#p" />
<use x="272" y="152" xlink:href="#p" />
<use x="272" y="184" xlink:href="#p" />
<use x="272" y="200" xlink:href="#p" />
<use x="272" y="216" xlink:href="#p" />
<use x="272" y="232" xlink:href="#p" />
<use x="272" y="248" xlink:href="#p" />
<use x="272" y="264" xlink:href="#p" />
<use x="272" y="280" xlink:href="#p" />
<use x="280" y="32" xlink:href="#p" />
<use x="280" y="80" xlink:href="#p" />
<use x="280" y="104" xlink:href="#p" />
<use x="280" y="128" xlink:href="#p" />
<use x="280" y="160" xlink:href="#p" />
<use x="280" y="168" xlink:href="#p" />
<use x="280" y="184" xlink:href="#p" />
<use x="280" y="200" xlink:href="#p" />
<use x="280" y="208" xlink:href="#p" />
<use x="280" y="224" xlink:href="#p" />
<use x="280" y="232" xlink:href="#p" />
<use x="280" y="280" xlink:href="#p" />
<use x="288" y="32" xlink:href="#p" />
<use x="288" y="40" xlink:href="#p" />
<use x="288" y="48" xlink:href="#p" />
<use x="288" y="56" xlink:href="#p" />
<use x="288" y="64" xlink:href="#p" />
<use x="288" y="72" xlink:href="#p" />
<use x="288" y="80" xlink:href="#p" />
<use x="288" y="96" xlink:href="#p" />
<use x="288" y="112" xlink:href="#p" />
<use x="288" y="128" xlink:href="#p" />
<use x="288" y="152" xlink:href="#p" />
<use x="288" y="160" xlink:href="#p" />
<use x="288" y="168" xlink:href="#p" />
<use x="288" y="176" xlink:href="#p" />
<use x="288" y="184" xlink:href="#p" />
<use x="288" y="208" xlink:href="#p" />
<use x="288" y="248" xlink:href="#p" />
<use x="288" y="272" xlink:href="#p" />
<use x="288" y="280" xlink:href="#p" />
</g>
</svg>